# xmcd
#
# Track frame offsets: 
#        150
#        10067
#        22670
#        36010
#        50247
#        61502
#        75082
#        86736
#        99650
#        110903
#        122164
#        138465
#        152174
#        164305
#        175946
#        188496
#
# Disc length: 2689 seconds
#
# Revision: 0
# Processed by: cddbd v1.5.2PL0 Copyright (c) Steve Scherf et al.
# Submitted via: ExactAudioCopyFreeDBPlugin 1.0
#
DISCID=c00a7f10
DTITLE=Rich the Kid - The world is yours 2
DYEAR=2019
DGENRE=No, thanks.
TTITLE0=World Is Yours 2 (Intro)
TTITLE1=Slide
TTITLE2=Splashin
TTITLE3=Fall Threw
TTITLE4=Save That
TTITLE5=Two Cups
TTITLE6=Racks Today
TTITLE7=Woah
TTITLE8=Tic Toc
TTITLE9=Wrong Thing
TTITLE10=4 Phones
TTITLE11=Rockets
TTITLE12=Like Mike
TTITLE13=Racks Out
TTITLE14=Ring Ring
TTITLE15=For Keeps
EXTD=
EXTT0=
EXTT1=
EXTT2=
EXTT3=
EXTT4=
EXTT5=
EXTT6=
EXTT7=
EXTT8=
EXTT9=
EXTT10=
EXTT11=
EXTT12=
EXTT13=
EXTT14=
EXTT15=
PLAYORDER=
